PathFileType	4	(X/Y/Z)	C:/Users/cpontonn/Documents/TRAVAIL - COURS/FORMATION DOCTORALE/COURS AUTOMNE/TP OPENSIM/ESCRIME DATA/C3Ds/Trial011.trc	
DataRate	CameraRate	NumFrames	NumMarkers	Units	OrigDataRate	OrigDataStartFrame	OrigNumFrames	
250.00	250.00	4	54	mm	250.00	593	790	
Frame#	Time	Sword:Root4			Screen:LBot			Screen:RBot			Screen:LTop			Screen:RTop			Screen:MTop			Sword:Root1			Sword:Root2			Sword:Root3			Sword:Root5			Sword:Root6			Sword:STip			LFHD			LBHD			RFHD			RBHD			C7			T10			CLAV			STRN			LSHO			LRAD			LHUM			LWRB			LWRA			RSHO			RBAC			RUPA			RRAD			RHUM			RWRB			RWRA			RCAR			LFWT			LBWT			RFWT			RBWT			LKNE			LKNI			LANE			LANI			LHEE			LTAR			LTARI			LTOE			RTHI			RKNE			RKNI			RANE			RANI			RHEE			RTAR			RTARI			RTOE			
		X1	Y1	Z1	X2	Y2	Z2	X3	Y3	Z3	X4	Y4	Z4	X5	Y5	Z5	X6	Y6	Z6	X7	Y7	Z7	X8	Y8	Z8	X9	Y9	Z9	X10	Y10	Z10	X11	Y11	Z11	X12	Y12	Z12	X13	Y13	Z13	X14	Y14	Z14	X15	Y15	Z15	X16	Y16	Z16	X17	Y17	Z17	X18	Y18	Z18	X19	Y19	Z19	X20	Y20	Z20	X21	Y21	Z21	X22	Y22	Z22	X23	Y23	Z23	X24	Y24	Z24	X25	Y25	Z25	X26	Y26	Z26	X27	Y27	Z27	X28	Y28	Z28	X29	Y29	Z29	X30	Y30	Z30	X31	Y31	Z31	X32	Y32	Z32	X33	Y33	Z33	X34	Y34	Z34	X35	Y35	Z35	X36	Y36	Z36	X37	Y37	Z37	X38	Y38	Z38	X39	Y39	Z39	X40	Y40	Z40	X41	Y41	Z41	X42	Y42	Z42	X43	Y43	Z43	X44	Y44	Z44	X45	Y45	Z45	X46	Y46	Z46	X47	Y47	Z47	X48	Y48	Z48	X49	Y49	Z49	X50	Y50	Z50	X51	Y51	Z51	X52	Y52	Z52	X53	Y53	Z53	X54	Y54	Z54	

593	2.368	35.12141	2095.27930	783.75238	-1670.95935	3506.21362	29.43023	2281.49609	3509.77197	32.10408	-1652.62122	3518.74048	2206.18750	2272.47803	3511.65063	2215.33203	-472.42929	3519.24023	2201.48560	80.00075	2138.40015	753.74658	65.24860	2463.31982	644.53253	147.71039	2056.23999	745.60992	1.94352	2042.26636	778.27759	66.16119	2066.38501	711.48242	29.88009	2911.79492	425.73566	183.42953	1676.23718	1494.43835	146.42900	1586.27246	1460.70923	391.56973	1624.31201	1518.71082	375.77985	1512.76965	1470.37280	200.28047	1493.45007	1328.01770	137.03891	1427.82764	1067.70435	322.83139	1579.22388	1229.12134	354.62543	1575.98059	1073.60999	122.19028	1671.91492	1233.63013	14.71846	1727.94116	938.22235	68.15131	1688.27075	902.66876	57.64766	1931.57031	741.38727	80.42072	1974.16223	830.50287	337.59247	1366.91882	1304.60071	203.80472	1345.98792	1231.30847	408.76944	1215.42102	1174.16748	377.26370	1111.97095	1121.21338	343.97153	1147.32288	1043.55811	643.53528	1156.99060	1079.18030	614.64471	1243.76501	1107.08813	692.89081	1219.93079	1133.46045	248.77821	1611.70264	835.06665	110.49174	1437.09814	865.00769	371.75058	1421.89868	838.13354	151.25941	1375.48584	873.72552	156.89937	1859.48206	485.50104	289.23413	1837.11328	439.34497	159.43236	2047.58228	111.46261	254.51370	2023.99988	113.86980	190.04747	2006.02075	34.36587	183.39757	2197.33667	139.12868	283.55014	2162.20020	141.33855	269.13177	2221.15771	194.02863	465.41974	1270.30322	479.90326	410.14890	1171.50220	437.88416	400.39890	1279.71289	352.62384	185.14340	972.89325	127.55671	227.28534	1040.42542	63.61296	131.65459	1009.12720	66.61755	299.76025	870.35699	78.26252	337.01852	965.68036	33.03941	391.22675	912.45935	51.03511 
594	2.372	33.58329	2085.27832	784.32672	-1670.89856	3506.18726	29.44948	2281.42529	3509.73706	32.05857	-1652.66272	3518.87695	2206.22266	2272.06396	3510.94580	2215.55713	-472.42435	3519.30615	2201.29297	78.52036	2128.34570	754.26904	63.82573	2452.90283	644.19287	146.18657	2046.16907	746.34949	0.36253	2032.15112	778.79535	64.74582	2056.21558	712.16418	28.36435	2900.53931	423.18320	183.33005	1669.82751	1496.93213	146.78120	1579.92004	1463.10461	391.66376	1617.70386	1520.94812	375.95798	1505.98779	1472.77942	200.38409	1486.49683	1330.12512	137.15755	1421.98315	1069.72632	322.84967	1572.98474	1231.85181	354.80048	1570.23669	1076.41272	121.45518	1664.74146	1235.77661	12.94722	1717.63452	940.33612	66.53798	1677.90955	905.22882	56.18191	1921.43811	742.31384	78.75059	1964.25464	831.37531	338.27872	1360.29675	1306.35535	204.66350	1339.39404	1233.17419	411.06009	1210.25793	1174.17517	379.88358	1106.91699	1120.62976	346.09100	1142.78394	1043.50439	645.66705	1154.11414	1078.89893	616.43097	1240.51233	1107.65747	694.67743	1217.02332	1133.64502	248.95024	1606.62549	837.12946	110.86033	1432.17822	867.04395	372.05518	1416.97742	840.40613	151.56752	1370.51868	875.97931	156.32166	1853.42383	485.39786	289.01254	1830.39026	438.63593	158.84531	2040.10486	111.38064	254.23946	2017.06335	114.00902	189.81416	1998.27405	34.56538	182.17314	2190.13843	138.13591	282.46091	2155.68677	140.52701	267.91071	2214.57642	192.92303	465.16818	1266.23633	481.32767	409.34137	1168.05981	438.97034	400.17889	1276.71716	354.02441	184.76001	971.26355	127.11348	227.01706	1039.23132	63.88615	131.37947	1007.86761	66.73951	299.17957	868.47900	76.73451	336.59921	964.74017	33.76135	390.86111	911.20880	51.12797 
595	2.376	31.90180	2075.56079	784.86401	-1670.81042	3506.17480	29.50768	2281.42310	3509.72803	32.05034	-1652.59094	3519.19214	2206.29639	2272.43359	3511.39917	2215.38989	-472.45584	3519.46045	2201.47266	77.15637	2118.58398	754.79089	62.55514	2442.79810	643.63556	145.02791	2036.46765	747.29840	-1.09981	2022.45496	779.41528	63.45843	2046.32104	712.87726	27.17848	2889.20581	420.22562	183.42020	1663.44336	1499.21021	146.86209	1573.58411	1465.44202	391.67020	1611.10400	1523.09204	375.67264	1499.43591	1474.90857	200.37381	1479.60168	1332.10107	137.28909	1416.19312	1071.70251	322.86752	1566.78052	1234.42578	354.83597	1564.54517	1079.07312	120.71969	1657.67236	1237.84802	11.26896	1707.63977	942.38800	64.72183	1667.62305	907.59381	54.78709	1911.59363	743.30188	77.11996	1954.64856	832.35071	338.90668	1353.73669	1307.97339	205.54076	1332.77612	1234.95178	413.26193	1205.21777	1174.05164	382.49765	1101.95959	1120.03589	348.23984	1138.27307	1043.39661	647.77246	1151.55249	1078.48889	617.97272	1237.61597	1108.32703	696.26556	1214.16138	1133.69312	248.08974	1601.36804	838.80750	111.27268	1427.17468	868.95026	372.35660	1412.05444	842.52905	151.88268	1365.54175	878.11591	155.66940	1847.36169	485.47263	288.96655	1823.57971	437.92450	158.22476	2031.94019	111.00198	253.70886	2009.30896	113.80995	189.33121	1989.82349	34.61631	181.20662	2182.43311	136.44394	281.39142	2148.24731	138.91258	266.85986	2207.37524	191.17778	464.93051	1262.26733	482.54764	408.64111	1164.59753	439.82108	399.89255	1273.75085	355.26096	184.35063	969.53302	126.70997	226.86066	1038.01855	64.05950	131.00969	1006.49512	66.85015	298.69208	866.42584	75.11703	336.27322	963.80756	34.55801	390.48303	909.96069	51.11060 
596	2.380	30.45667	2066.19751	785.40875	-1670.92029	3506.19287	29.47099	2281.37964	3509.63818	32.06516	-1652.44934	3519.38818	2206.28052	2272.47266	3511.38892	2215.32642	-472.37518	3519.43677	2200.99072	75.73194	2109.07104	755.31738	61.38131	2432.87744	642.88257	143.66235	2026.87207	748.14636	-2.48716	2013.01953	780.07172	62.18959	2036.73108	713.59406	26.25157	2878.02954	416.90860	183.57848	1657.17065	1501.35706	146.72746	1567.30798	1467.72107	391.67776	1604.59741	1525.13306	375.39166	1493.03101	1477.02881	200.33769	1472.82947	1333.98511	137.43608	1410.35730	1073.61011	322.73050	1560.57910	1236.82007	354.76453	1558.68079	1081.61768	120.04660	1650.72546	1239.82507	9.75091	1697.86792	944.39478	63.22845	1657.85815	910.02094	53.54946	1902.04529	744.32220	75.52930	1945.33765	833.30676	339.52991	1347.21387	1309.50439	206.40720	1326.20911	1236.52686	415.41327	1200.23328	1173.88367	385.16071	1097.09985	1119.40479	350.33917	1133.74536	1043.29614	649.93524	1149.25269	1078.00952	619.48474	1234.69116	1108.65247	698.04095	1211.61743	1133.62427	247.44472	1596.02869	840.50543	111.69243	1422.07837	870.78253	372.65851	1407.03235	844.54376	152.22212	1360.51123	880.10406	155.12756	1841.29553	485.71072	288.82150	1816.60571	437.31732	157.47716	2023.34338	110.51824	252.95303	2000.80066	113.29927	188.49564	1980.68689	34.48538	180.31154	2174.23291	134.56419	280.97357	2140.05371	137.03716	266.12982	2199.49438	188.97063	464.68900	1258.41382	483.54358	407.95596	1161.01599	440.52612	399.51169	1270.74072	356.36978	183.97279	967.64905	126.22272	226.41153	1036.78369	64.30093	130.63667	1005.10236	66.88676	298.09097	864.44720	73.38896	336.24512	962.96149	35.79987	389.99609	908.58606	51.02163 
